<svg height="109" viewBox="0 0 104 109" width="104" xmlns="http://www.w3.org/2000/svg" xmlns:xlink="http://www.w3.org/1999/xlink"><clipPath id="a"><path d="m0 40h16.2075v28.8522h-16.2075z"/></clipPath><clipPath id="b"><path d="m84 80h19.0116v28.8522h-19.0116z"/></clipPath><clipPath id="c"><path d="m.246094 0h15.6215v28.8522h-15.6215z"/></clipPath><g clip-path="url(#a)"><path d="m16.2075 42.7204h-16.2075v-2.7204h16.2075zm-6.618 26.1318h-2.92969v-24.8762h2.92969z"/></g><g clip-path="url(#b)"><path d="m86.9715 108.852h-2.9715l7.3295-28.2242h.2092l1.3393 5.4042zm16.0405 0h-3.0138l-1.7578-6.911h-8.1665l.7115-2.6783h6.869l-5.0275-19.2627h2.8878z"/></g><g clip-path="url(#c)"><path d="m3.17578 28.8522h-2.929686v-28.8522h2.929686zm8.50132-13.0633h-7.24574v-2.8041h7.24574zm4.1905 13.0633h-2.9297v-28.8522h2.9297z"/></g></svg>