<svg id="Сгруппировать_1030" data-name="Сгруппировать 1030" xmlns="http://www.w3.org/2000/svg" width="14" height="14.595" viewBox="0 0 14 14.595">
  <path id="Контур_515" data-name="Контур 515" d="M1309.63,953.065h-1.5v-1.62a.38.38,0,0,0-.38-.38h-1.25a.378.378,0,0,0-.37.38v1.62h-4v-1.62a.38.38,0,0,0-.38-.38h-1.25a.378.378,0,0,0-.37.38v1.62h-1.5a1.5,1.5,0,0,0-1.5,1.5v9.595a1.5,1.5,0,0,0,1.5,1.5h11a1.5,1.5,0,0,0,1.5-1.5v-9.595A1.5,1.5,0,0,0,1309.63,953.065Zm.5,11.095a.5.5,0,0,1-.5.5h-11a.5.5,0,0,1-.5-.5v-7.515h12Z" transform="translate(-1297.13 -951.065)" fill="#fff"/>
  <path id="Контур_516" data-name="Контур 516" d="M1300.5,963.17h1.25a.378.378,0,0,0,.38-.37v-1.25a.38.38,0,0,0-.38-.38h-1.25a.378.378,0,0,0-.37.38v1.25A.376.376,0,0,0,1300.5,963.17Z" transform="translate(-1297.13 -951.065)" fill="#fff"/>
  <path id="Контур_517" data-name="Контур 517" d="M1300.5,960.17h1.25a.378.378,0,0,0,.38-.37v-1.25a.38.38,0,0,0-.38-.38h-1.25a.378.378,0,0,0-.37.38v1.25A.376.376,0,0,0,1300.5,960.17Z" transform="translate(-1297.13 -951.065)" fill="#fff"/>
  <path id="Контур_518" data-name="Контур 518" d="M1303.5,963.17h1.25a.378.378,0,0,0,.38-.37v-1.25a.38.38,0,0,0-.38-.38h-1.25a.378.378,0,0,0-.37.38v1.25A.376.376,0,0,0,1303.5,963.17Z" transform="translate(-1297.13 -951.065)" fill="#fff"/>
  <path id="Контур_519" data-name="Контур 519" d="M1303.5,960.17h1.25a.378.378,0,0,0,.38-.37v-1.25a.38.38,0,0,0-.38-.38h-1.25a.378.378,0,0,0-.37.38v1.25A.376.376,0,0,0,1303.5,960.17Z" transform="translate(-1297.13 -951.065)" fill="#fff"/>
  <path id="Контур_520" data-name="Контур 520" d="M1306.5,963.17h1.25a.378.378,0,0,0,.38-.37v-1.25a.38.38,0,0,0-.38-.38h-1.25a.378.378,0,0,0-.37.38v1.25A.376.376,0,0,0,1306.5,963.17Z" transform="translate(-1297.13 -951.065)" fill="#fff"/>
  <path id="Контур_521" data-name="Контур 521" d="M1306.5,960.17h1.25a.378.378,0,0,0,.38-.37v-1.25a.38.38,0,0,0-.38-.38h-1.25a.378.378,0,0,0-.37.38v1.25A.376.376,0,0,0,1306.5,960.17Z" transform="translate(-1297.13 -951.065)" fill="#fff"/>
</svg>
