<svg xmlns="http://www.w3.org/2000/svg" viewBox="11.24 10.7 27.38 27.38">
  <g id="Сгруппировать_1158" data-name="Сгруппировать 1158" transform="translate(0.25 -0.371)">
    <path id="Контур_29" data-name="Контур 29" d="M-211.838,297.333h-16.8a5.3,5.3,0,0,0-5.292,5.292v16.8a5.3,5.3,0,0,0,5.292,5.292h16.8a5.3,5.3,0,0,0,5.292-5.292v-16.8A5.3,5.3,0,0,0-211.838,297.333Zm1.519,3.157.606,0v4.641l-4.628.017-.015-4.641Zm-13.825,7.723a4.812,4.812,0,0,1,3.908-2.009,4.812,4.812,0,0,1,3.907,2.009,4.785,4.785,0,0,1,.914,2.811,4.826,4.826,0,0,1-4.821,4.819,4.824,4.824,0,0,1-4.819-4.819A4.793,4.793,0,0,1-224.145,308.213Zm14.93,11.21a2.626,2.626,0,0,1-2.624,2.624h-16.8a2.626,2.626,0,0,1-2.624-2.624v-11.21h4.088a7.442,7.442,0,0,0-.552,2.811,7.5,7.5,0,0,0,7.487,7.487,7.494,7.494,0,0,0,7.486-7.487,7.471,7.471,0,0,0-.551-2.811h4.088Z" transform="translate(244.915 -286.262)"/>
    <g id="Эллипс_24" data-name="Эллипс 24" transform="translate(-0.25 0.371)" fill="none" stroke-width="2">
      <ellipse cx="25" cy="24.5" rx="25" ry="24.5" stroke="none"/>
      <ellipse cx="25" cy="24.5" rx="24" ry="23.5" fill="none"/>
    </g>
  </g>
</svg>