<svg width="43" height="30" viewBox="0 0 43 30" fill="none" xmlns="http://www.w3.org/2000/svg">
<path d="M37.3255 11.5018C38.3705 10.4568 40.0653 10.4568 41.117 11.5018L42.0749 12.4665C43.1266 13.5115 43.1266 15.2062 42.0749 16.258L40.1055 18.2274L35.3561 13.4713L37.3255 11.5018ZM38.5916 19.7413L29.9368 28.3961C29.6621 28.6708 29.3138 28.865 28.9387 28.9588L24.9127 29.9703C24.5443 30.0574 24.1625 29.9502 23.8945 29.689C23.6266 29.421 23.5194 29.0325 23.6132 28.6105L24.618 24.6381C24.7118 24.263 24.906 23.9213 25.1807 23.5864L33.8355 14.9919L38.5916 19.7413Z" fill="white"/>
<path d="M2.00963e-05 4.28721C2.00963e-05 1.91919 1.91919 0 4.28721 0H34.2977C36.6623 0 38.5849 1.91919 38.5849 4.28721V8.6146C37.5666 8.74858 36.5886 9.2041 35.8116 9.98785L23.6667 22.126C23.1174 22.6753 22.7289 23.3653 22.5413 24.1222L22.1394 25.7232H4.28721C1.91919 25.7232 0 23.8007 0 21.436L2.00963e-05 4.28721ZM7.50261 17.1488H22.5078C23.0973 17.1488 23.5796 16.6665 23.5796 16.077C23.5796 15.4875 23.0973 15.0052 22.5078 15.0052H7.50261C6.91312 15.0052 6.43081 15.4875 6.43081 16.077C6.43081 16.6665 6.91312 17.1488 7.50261 17.1488ZM7.50261 8.57441C6.91312 8.57441 6.43081 9.05672 6.43081 9.64621C6.43081 10.2357 6.91312 10.718 7.50261 10.718H28.9386C29.5281 10.718 30.0104 10.2357 30.0104 9.64621C30.0104 9.05672 29.5281 8.57441 28.9386 8.57441H7.50261Z" fill="white"/>
</svg>
