<svg width="27" height="27" viewBox="0 0 27 27" fill="none" xmlns="http://www.w3.org/2000/svg">
<path fill-rule="evenodd" clip-rule="evenodd" d="M8.02257 6.60332C7.72973 6.31037 7.25495 6.31037 6.96211 6.60332C6.66927 6.89627 6.66927 7.37123 6.96211 7.66418L12.4424 13.1466L6.60876 18.9825C6.31592 19.2754 6.31592 19.7504 6.60876 20.0433C6.90159 20.3363 7.37638 20.3363 7.66921 20.0433L13.5029 14.2074L19.3341 20.0409C19.627 20.3339 20.1017 20.3339 20.3946 20.0409C20.6874 19.748 20.6874 19.273 20.3946 18.98L14.5633 13.1466L20.0412 7.6666C20.3341 7.37366 20.3341 6.89869 20.0412 6.60574C19.7484 6.31279 19.2736 6.31279 18.9808 6.60574L13.5029 12.0857L8.02257 6.60332Z" fill="#0F0F0F"/>
</svg>
