<svg width="29" height="29" viewBox="0 0 29 29" fill="none" xmlns="http://www.w3.org/2000/svg">
<g clip-path="url(#clip0_4440_122)">
<path d="M26.8727 1.28022L26.8734 1.28035C27.3092 1.36002 27.6404 1.69322 27.7181 2.1234L27.7184 2.12502C28.4333 6.01082 28.2106 12.4336 21.8381 16.7545C19.615 18.2564 15.8091 20.037 13.148 21.2059C12.6613 18.4224 10.4749 16.2878 7.71319 15.8388C8.90731 13.2022 10.7353 9.39271 12.2451 7.16269C16.5661 0.790904 22.9894 0.56453 26.8727 1.28022ZM21.5 4.81252C20.0153 4.81252 18.8125 6.01529 18.8125 7.50002C18.8125 8.98476 20.0153 10.1875 21.5 10.1875C22.9847 10.1875 24.1875 8.98476 24.1875 7.50002C24.1875 6.01529 22.9847 4.81252 21.5 4.81252Z" fill="white" stroke="white"/>
<path d="M1.76327 16.25C1.33835 16.25 0.901066 15.993 0.668589 15.5828C0.436113 15.1672 0.444535 14.6148 0.690683 14.2539L3.57671 9.50703C4.29038 8.33125 5.56624 7.60938 6.94218 7.60938H11.3609C9.80233 10.1195 8.04139 13.8711 6.98046 16.25H1.76327ZM21.3414 22.0578C21.3414 23.4359 20.6687 24.7102 19.493 25.4266L14.7461 28.3086C14.3359 28.5547 13.8328 28.5656 13.4172 28.3305C13.007 28.1008 12.7008 27.6633 12.7008 27.1875V21.9266C15.1508 20.8875 18.8969 19.1758 21.3414 17.6391V22.0578ZM9.60546 26.2031C6.89843 28.9102 0.526046 28.4727 0.526046 28.4727C0.526046 28.4727 0.0889567 22.0523 2.79577 19.3945C4.67647 17.5133 7.72421 17.5133 9.60546 19.3945C11.4867 21.2758 11.4867 24.3219 9.60546 26.2031ZM7.05155 21.9484C6.42264 21.325 5.41147 21.325 4.78639 21.9484C3.88624 22.8508 4.03171 24.9672 4.03171 24.9672C4.03171 24.9672 6.14921 25.1148 7.05155 24.2125C7.67499 23.5891 7.67499 22.5773 7.05155 21.9484Z" fill="white"/>
</g>
<defs>
<clipPath id="clip0_4440_122">
<rect width="28" height="28" fill="white" transform="translate(0.5 0.5)"/>
</clipPath>
</defs>
</svg>
