<svg width="41" height="30" viewBox="0 0 41 30" fill="none" xmlns="http://www.w3.org/2000/svg">
<g clip-path="url(#clip0_5288_12088)">
<path d="M7.70573 0.555151V6.63251H4.82882V0.555151H0.260742V16.8929H4.82882V10.5544H7.70573V16.8929H12.1375V0.555151H7.70573ZM32.4519 5.32485C30.6491 5.32485 29.1876 6.78939 29.1876 8.59455C29.1876 10.3997 30.6491 11.8642 32.4519 11.8642C34.2546 11.8642 35.7172 10.4008 35.7172 8.59455C35.7172 6.78832 34.2557 5.32485 32.4519 5.32485ZM32.4497 0.282229C27.8838 0.279005 25.5509 3.64433 24.9747 5.0025C24.9801 2.9631 22.9723 0.556226 20.6245 0.554077H13.0593V16.8929H20.1126C22.9563 16.8929 24.979 14.4269 24.9833 12.3112C25.6325 13.6425 27.8838 16.9756 32.4497 16.9746C37.021 16.9724 40.7414 13.1698 40.7403 8.59133C40.7392 3.91618 37.021 0.285452 32.4497 0.282229ZM19.5213 13.0881H17.2775V10.3266H19.5213C20.1738 10.3266 20.6878 10.9724 20.6878 11.7074C20.6878 12.4423 20.1738 13.0881 19.5213 13.0881ZM19.5299 6.95272H17.2861V4.19125H19.5299C20.1824 4.19125 20.6964 4.83703 20.6964 5.57199C20.6964 6.30694 20.1824 6.95272 19.5299 6.95272ZM22.5152 8.59455C23.0292 8.529 23.8866 7.94125 24.1881 7.56518C24.0819 8.03151 24.0744 9.37893 24.1978 9.84419C23.8533 9.31339 23.0378 8.66009 22.5152 8.59455ZM32.4519 12.7539C30.1587 12.7539 28.2991 10.8918 28.2991 8.59455C28.2991 6.29727 30.1587 4.43517 32.4519 4.43517C34.745 4.43517 36.6058 6.29727 36.6058 8.59455C36.6058 10.8918 34.7461 12.7539 32.4519 12.7539ZM32.4519 5.32485C30.6491 5.32485 29.1876 6.78939 29.1876 8.59455C29.1876 10.3997 30.6491 11.8642 32.4519 11.8642C34.2546 11.8642 35.7172 10.4008 35.7172 8.59455C35.7172 6.78832 34.2557 5.32485 32.4519 5.32485ZM32.4519 5.32485C30.6491 5.32485 29.1876 6.78939 29.1876 8.59455C29.1876 10.3997 30.6491 11.8642 32.4519 11.8642C34.2546 11.8642 35.7172 10.4008 35.7172 8.59455C35.7172 6.78832 34.2557 5.32485 32.4519 5.32485Z" fill="white"/>
<mask id="mask0_5288_12088" style="mask-type:luminance" maskUnits="userSpaceOnUse" x="0" y="18" width="40" height="12">
<path d="M39.458 18.8213H0.260742V29.5029H39.458V18.8213Z" fill="white"/>
</mask>
<g mask="url(#mask0_5288_12088)">
<path d="M15.1872 29.4191V23.0269C15.1872 20.2042 14.4178 18.8213 12.0903 18.8213C10.7779 18.8213 9.37758 19.9463 8.60711 20.6479C8.22295 19.4305 7.36556 18.8213 5.8257 18.8213C4.65283 18.8213 3.42738 19.7067 2.64082 20.389V19.1007H0.260742V29.4191H2.64082V22.4735C3.41021 21.7912 4.5305 20.9606 5.36965 20.9606C6.3676 20.9606 6.52535 21.7353 6.52535 23.0269V29.4191H8.90542V23.0269C8.90542 22.8421 8.90542 22.6572 8.88718 22.4918C9.65765 21.8095 10.7951 20.9606 11.6353 20.9606C12.6322 20.9606 12.79 21.7353 12.79 23.0269V29.4191H15.1872Z" fill="white"/>
<path d="M34.9907 24.1174C36.5649 22.6196 37.9857 20.9466 39.2036 19.1006H36.2087C35.4736 20.3599 34.5851 21.4462 33.4938 22.5755C32.4025 21.4462 31.4378 20.3599 30.7779 19.1006H27.7829C29.0019 20.9466 30.4227 22.6196 31.9958 24.1174C30.3218 25.6819 28.8495 27.4623 27.5297 29.4168H30.5246C31.3359 28.049 32.3263 26.8757 33.4938 25.6819C34.6613 26.8757 35.6507 28.049 36.463 29.4168H39.458C38.1381 27.4623 36.6658 25.6819 34.9907 24.1174Z" fill="white"/>
<path d="M21.4078 27.2583C19.6834 27.2583 18.2841 25.8582 18.2841 24.1304C18.2841 22.4026 19.6823 21.0036 21.4078 21.0036C23.1333 21.0036 24.5315 22.4037 24.5315 24.1304C24.5315 25.8571 23.1333 27.2583 21.4078 27.2583ZM24.5057 19.1007V20.3482C23.6033 19.3048 22.4476 18.8213 21.1138 18.8213C18.3463 18.8213 16.0499 21.2045 16.0499 24.1626C16.0499 27.1207 18.3463 29.5029 21.1138 29.5029C22.4476 29.5029 23.6033 29.0194 24.5057 27.976V29.4191H26.8858V19.1007H24.5057Z" fill="white"/>
</g>
</g>
<defs>
<clipPath id="clip0_5288_12088">
<rect width="41" height="30" fill="white"/>
</clipPath>
</defs>
</svg>
