<svg width="35" height="35" viewBox="0 0 35 35" fill="none" xmlns="http://www.w3.org/2000/svg">
<g clip-path="url(#clip0_4153_45706)">
<path d="M28 28H6.95078C6.03203 28 5.25 28.782 5.25 29.7008C5.25 30.6195 6.03203 31.5 6.95078 31.5H27.9508C28.968 31.5 29.75 30.718 29.75 29.75C29.75 28.782 28.968 28 28 28ZM32.375 3.5H2.625C1.17578 3.5 0 4.67578 0 6.125V23.625C0 25.0742 1.17578 26.25 2.625 26.25H32.375C33.8242 26.25 35 25.0742 35 23.625V6.125C35 4.67578 33.8242 3.5 32.375 3.5ZM31.5 22.75H3.5V7H31.5V22.75Z" fill="white"/>
</g>
<defs>
<clipPath id="clip0_4153_45706">
<rect width="35" height="28" fill="white" transform="translate(0 3.5)"/>
</clipPath>
</defs>
</svg>
