<?xml version="1.0" encoding="UTF-8"?>
<svg xmlns="http://www.w3.org/2000/svg" xmlns:xlink="http://www.w3.org/1999/xlink" viewBox="142 89 37 143">
<path fill-rule="nonzero" fill="rgb(100%, 100%, 100%)" fill-opacity="1" d="M 175.671875 169.972656 C 175.671875 169.972656 175.753906 170.960938 175.746094 170.992188 C 175.574219 172.410156 175.851562 173.816406 175.929688 175.226562 C 176.054688 177.523438 176.035156 179.828125 176.035156 182.132812 C 176.03125 184.742188 175.898438 187.359375 175.980469 189.96875 C 176.054688 192.320312 176.523438 194.628906 177.195312 196.894531 C 177.289062 197.210938 177.28125 197.65625 177.128906 197.9375 C 176.691406 198.730469 176.519531 199.566406 176.5 200.445312 C 176.460938 202.585938 176.652344 201.351562 176.566406 203.484375 C 176.410156 207.367188 173.652344 210.199219 172.386719 213.894531 C 171.914062 215.277344 171.789062 215.320312 170.886719 216.4375 C 169.363281 218.316406 167.792969 220.15625 166.226562 222 C 166.125 222.117188 166.042969 222.210938 165.96875 222.28125 C 165.582031 222.636719 164.929688 222.304688 165.035156 221.789062 C 165.035156 221.785156 165.035156 221.785156 165.035156 221.78125 C 165.15625 221.21875 165.34375 220.671875 165.484375 220.109375 C 165.667969 219.390625 165.855469 218.667969 165.992188 217.9375 C 166.082031 217.480469 165.953125 217.058594 165.625 216.6875 C 165.117188 216.109375 165.078125 215.539062 165.480469 214.871094 C 165.605469 214.65625 165.761719 214.445312 165.9375 214.265625 C 168.140625 212.007812 169.238281 210.574219 170.984375 207.964844 C 172.167969 206.195312 173.921875 202.367188 173.839844 200.269531 C 173.703125 196.851562 174.210938 199.632812 173.171875 196.335938 C 172.609375 194.539062 171.824219 192.851562 170.683594 191.335938 C 170.066406 190.511719 170.234375 189.589844 171.28125 189.222656 C 171.976562 188.976562 172.195312 188.523438 172.261719 187.867188 C 172.464844 185.945312 172.285156 184.042969 172.007812 182.148438 C 171.683594 179.921875 171.296875 177.703125 170.949219 175.480469 C 170.71875 174.019531 171.035156 172.632812 171.203125 171.179688 C 171.171875 170.734375 170.964844 170.074219 170.742188 169.6875 C 169.742188 167.9375 168.347656 166.496094 166.964844 165.054688 C 165.46875 163.492188 163.957031 161.9375 162.464844 160.371094 C 162.222656 160.121094 162.027344 159.828125 161.722656 159.441406 C 161.527344 160.292969 161.289062 161.023438 161.203125 161.769531 C 160.976562 163.761719 160.230469 165.578125 159.417969 167.375 C 158.867188 168.59375 158.324219 169.816406 157.738281 171.019531 C 157.257812 172.003906 156.914062 173.023438 156.835938 174.117188 C 156.761719 175.101562 156.339844 175.914062 155.71875 176.660156 C 154.769531 177.792969 153.839844 178.941406 153.246094 180.316406 C 152.753906 181.46875 152.226562 182.605469 151.746094 183.761719 C 150.957031 185.671875 150.105469 187.558594 149.652344 189.59375 C 149.191406 191.675781 148.878906 193.785156 148.957031 195.914062 C 148.996094 196.933594 149.347656 197.945312 149.609375 198.949219 C 149.902344 200.078125 150.25 201.191406 150.574219 202.316406 C 150.6875 202.710938 150.648438 203.027344 150.1875 203.1875 C 149.890625 203.289062 149.917969 203.554688 150 203.792969 C 150.386719 204.910156 150.714844 206.050781 151.191406 207.128906 C 152.929688 211.070312 155.3125 214.613281 157.996094 217.96875 C 159.15625 219.414062 160.316406 220.863281 161.496094 222.296875 C 161.808594 222.679688 161.855469 223.019531 161.605469 223.445312 C 161.402344 223.78125 161.253906 224.148438 161.085938 224.507812 C 160.816406 225.066406 160.804688 225.640625 161.15625 226.15625 C 161.78125 227.085938 162.449219 227.992188 163.097656 228.910156 C 163.277344 229.160156 163.476562 229.398438 163.628906 229.664062 C 163.792969 229.949219 163.851562 230.265625 163.558594 230.511719 C 163.261719 230.761719 163.007812 230.542969 162.824219 230.347656 C 161.898438 229.367188 160.929688 228.417969 160.09375 227.367188 C 156.367188 222.695312 153.175781 217.679688 150.5625 212.304688 C 149.195312 209.488281 148.160156 206.527344 147.539062 203.457031 C 146.976562 200.660156 145.816406 198.152344 144.375 195.730469 C 143.859375 194.863281 143.449219 193.929688 143 193.023438 C 142.914062 192.847656 142.855469 192.65625 142.808594 192.464844 C 142.648438 191.84375 142.769531 191.628906 143.371094 191.425781 C 144.101562 191.175781 144.828125 190.914062 145.5625 190.667969 C 145.945312 190.539062 146.195312 190.289062 146.277344 189.90625 C 146.519531 188.765625 146.785156 187.628906 146.953125 186.476562 C 147.332031 183.886719 147.65625 181.285156 148.433594 178.773438 C 148.960938 177.054688 149.761719 175.460938 150.882812 174.039062 C 150.957031 173.941406 151.042969 173.835938 151.078125 173.71875 C 151.492188 172.386719 152.117188 171.121094 152.078125 169.652344 C 151.988281 166.308594 152.59375 163.039062 153.332031 159.796875 C 153.578125 158.722656 153.578125 157.652344 153.390625 156.574219 C 153.238281 155.714844 153.097656 154.851562 153.007812 153.984375 C 151.75 149.785156 154.78125 147.246094 155.867188 146.613281 C 156.207031 146.414062 156.917969 145.375 157.050781 145.105469 C 157.8125 143.507812 157.585938 142.761719 157.097656 141.023438 C 156.140625 137.640625 155.933594 135.988281 154.964844 132.609375 C 154.9375 132.515625 154.90625 132.417969 154.863281 132.332031 C 154.429688 131.46875 154.304688 130.589844 154.382812 129.605469 C 154.417969 127.980469 156.050781 127.832031 157.34375 127.554688 C 158.121094 127.386719 158.265625 126.320312 158.308594 125.265625 C 158.351562 124.214844 157.914062 123.398438 157.117188 122.492188 C 155.941406 121.160156 155.597656 119.246094 155.6875 117.136719 C 155.773438 115.03125 156.867188 114.019531 158.160156 113.4375 C 159.019531 113.054688 160.070312 112.957031 161.074219 113.046875 C 162.089844 113.132812 163.242188 113.648438 163.429688 114.652344 C 163.496094 115.011719 163.539062 115.375 163.585938 115.738281 C 163.617188 116 163.746094 116.078125 164.015625 116.058594 C 164.972656 115.980469 165.578125 116.511719 165.648438 117.460938 C 165.757812 119.027344 165.625 119.265625 164.148438 119.785156 C 163.804688 119.90625 163.664062 120.054688 163.636719 120.417969 C 163.589844 121.003906 163.453125 121.585938 163.382812 122.171875 C 163.285156 122.929688 162.859375 123.398438 162.148438 123.605469 C 161.800781 123.707031 161.675781 123.898438 161.601562 124.242188 C 161.214844 125.980469 161.824219 127.394531 162.945312 128.660156 C 163.664062 129.46875 164.433594 130.238281 165.109375 131.078125 C 166.378906 132.652344 166.285156 134.429688 164.902344 135.878906 C 164.730469 136.058594 164.734375 136.1875 164.824219 136.394531 C 165.144531 137.113281 165.4375 137.84375 165.753906 138.566406 C 166.078125 139.3125 166.089844 140.058594 165.84375 140.832031 C 165.347656 142.359375 165.089844 143.921875 165.3125 145.53125 C 165.652344 147.96875 166.191406 150.367188 167.246094 152.589844 C 168.09375 154.375 169.1875 156.042969 170.140625 157.78125 C 171.144531 159.605469 172.109375 161.449219 173.09375 163.28125 C 173.464844 163.976562 173.816406 164.683594 174.230469 165.355469 C 175.105469 166.773438 175.582031 168.304688 175.671875 169.972656 "/>
<path fill-rule="nonzero" fill="rgb(100%, 100%, 100%)" fill-opacity="1" d="M 165.390625 104.214844 C 165.308594 104.214844 165.246094 104.148438 165.246094 104.066406 C 165.246094 103.148438 164.496094 102.402344 163.578125 102.402344 C 163.496094 102.402344 163.429688 102.335938 163.429688 102.253906 C 163.429688 102.171875 163.496094 102.105469 163.578125 102.105469 C 164.660156 102.105469 165.539062 102.984375 165.539062 104.066406 C 165.539062 104.148438 165.472656 104.214844 165.390625 104.214844 M 162.871094 101.203125 C 161.011719 101.203125 159.507812 102.710938 159.507812 104.566406 C 159.507812 106.425781 161.011719 107.929688 162.871094 107.929688 C 164.726562 107.929688 166.234375 106.425781 166.234375 104.566406 C 166.234375 102.710938 164.726562 101.203125 162.871094 101.203125 "/>
<path fill-rule="nonzero" fill="rgb(100%, 100%, 100%)" fill-opacity="1" d="M 159.332031 97.589844 C 158.480469 97.222656 158.089844 96.230469 158.457031 95.378906 C 158.824219 94.527344 159.816406 94.136719 160.667969 94.503906 C 161.519531 94.871094 161.914062 95.863281 161.542969 96.714844 C 161.175781 97.566406 160.183594 97.960938 159.332031 97.589844 "/>
<path fill-rule="nonzero" fill="rgb(100%, 100%, 100%)" fill-opacity="1" d="M 164.265625 92.855469 C 163.410156 92.214844 163.238281 91.007812 163.875 90.152344 C 164.511719 89.296875 165.722656 89.121094 166.578125 89.757812 C 167.429688 90.398438 167.605469 91.609375 166.96875 92.460938 C 166.332031 93.316406 165.121094 93.492188 164.265625 92.855469 "/>
</svg>
